<?xml version="1.0" encoding="utf-8"?>
<!-- Generator: Adobe Illustrator 19.0.0, SVG Export Plug-In . SVG Version: 6.00 Build 0)  -->
<svg version="1.1" id="Camada_1" xmlns="http://www.w3.org/2000/svg" xmlns:xlink="http://www.w3.org/1999/xlink" x="0px" y="0px"
	 viewBox="0 0 30 24" style="enable-background:new 0 0 30 24;" xml:space="preserve">
<style type="text/css">
	.st0{fill:#CA061D;}
</style>
<g id="XMLID_4_">
	<path id="XMLID_8_" class="st0" d="M18.6,10.1H9.2v4.3h4.7c-0.7,1.8-2.2,2.9-4.1,2.9c-2.6,0-4.9-2.3-4.9-4.8c0-2.5,2.3-4.8,4.9-4.8
		c1.2,0,2.3,0.4,3.1,1.2l0.3,0.3L16.4,6l-0.4-0.3c-1.5-1.5-3.6-2.3-6.2-2.3c-5.2,0-9.2,4-9.2,9.1s4,9.1,9.2,9.1
		c4.8,0,8.2-2.8,8.8-7.3c0.1-0.6,0.1-1.2,0.1-1.8c0-0.7,0-1.4-0.1-2L18.6,10.1z M17.7,14.2"/>
	<path id="XMLID_5_" class="st0" d="M26.5,10.1V7.3h-3.4v2.9h-2.9v3.4h2.9v2.9h3.4v-2.9h2.9v-3.4H26.5z M28.4,12.5"/>
</g>
</svg>
