<?xml version="1.0" encoding="utf-8"?>
<!-- Generator: Adobe Illustrator 19.0.0, SVG Export Plug-In . SVG Version: 6.00 Build 0)  -->
<svg version="1.1" id="Camada_1" xmlns="http://www.w3.org/2000/svg" xmlns:xlink="http://www.w3.org/1999/xlink" x="0px" y="0px"
	 viewBox="0 0 20 20" style="enable-background:new 0 0 20 20;" xml:space="preserve">
<style type="text/css">
	.st0{fill:#4C4B4D;}
</style>
<g id="LUPA">
	<path id="XMLID_7_" class="st0" d="M6.7,2.8c-2.2,0-4,1.8-4,4c0,0.2,0.2,0.4,0.4,0.4c0.2,0,0.4-0.2,0.4-0.4C3.5,5,5,3.5,6.7,3.5
		c0.2,0,0.4-0.2,0.4-0.4C7.1,2.9,6.9,2.8,6.7,2.8L6.7,2.8z M6.7,2.8"/>
	<path id="XMLID_2_" class="st0" d="M13.8,11.4c-0.1-0.1-0.4-0.1-0.5,0l-0.7,0.7l-0.9-0.9c1.1-1.2,1.7-2.8,1.7-4.5
		c0-3.7-3-6.7-6.7-6.7C3,0,0,3,0,6.7c0,3.7,3,6.7,6.7,6.7c1.7,0,3.3-0.7,4.5-1.7l0.9,0.9l-0.7,0.7c-0.1,0.1-0.1,0.2-0.1,0.3
		c0,0.1,0,0.2,0.1,0.3l5.8,5.8c0.2,0.2,0.5,0.4,0.9,0.4c0.3,0,0.6-0.1,0.9-0.4l0.6-0.6c0.2-0.2,0.4-0.5,0.4-0.9s-0.1-0.6-0.4-0.9
		L13.8,11.4z M0.7,6.7c0-3.3,2.7-6,6-6c3.3,0,6,2.7,6,6c0,3.3-2.7,6-6,6C3.4,12.7,0.7,10,0.7,6.7L0.7,6.7z M19.1,18.5l-0.6,0.6
		c-0.1,0.1-0.2,0.1-0.3,0.1c-0.1,0-0.2,0-0.3-0.1l-5.6-5.6l1.3-1.3l5.6,5.6c0.1,0.1,0.1,0.2,0.1,0.3C19.3,18.3,19.2,18.4,19.1,18.5
		L19.1,18.5z M19.1,18.5"/>
</g>
</svg>
