<?xml version="1.0" encoding="utf-8"?>
<!-- Generator: Adobe Illustrator 19.0.0, SVG Export Plug-In . SVG Version: 6.00 Build 0)  -->
<svg version="1.1" id="Camada_1" xmlns="http://www.w3.org/2000/svg" xmlns:xlink="http://www.w3.org/1999/xlink" x="0px" y="0px"
	 viewBox="0 0 20 20" style="enable-background:new 0 0 20 20;" xml:space="preserve">
<style type="text/css">
	.st0{fill:#FFFFFF;stroke:#FFFFFF;stroke-width:0.8378;stroke-miterlimit:10;}
</style>
<g id="XMLID_2_">
	<g id="XMLID_3_">
		<path id="XMLID_4_" class="st0" d="M4.9,18.7c-0.2,0-0.4-0.1-0.5-0.2C4.1,18.3,4,18,4,17.6l0.9-5.2L1.2,8.8
			C0.9,8.6,0.8,8.2,0.9,7.9s0.4-0.6,0.7-0.6l5.2-0.8l2.3-4.7C9.3,1.5,9.6,1.3,10,1.3c0.4,0,0.7,0.2,0.8,0.5l2.3,4.7l5.2,0.8
			c0.3,0.1,0.6,0.3,0.7,0.6c0.1,0.3,0,0.7-0.2,0.9l-3.7,3.7l0.9,5.2c0.1,0.3-0.1,0.7-0.4,0.9c-0.3,0.2-0.7,0.2-1,0.1L10,16.2
			l-4.6,2.4C5.2,18.7,5.1,18.7,4.9,18.7z M10,1.9C9.9,1.9,9.8,2,9.7,2.1L7.3,6.9C7.3,7,7.2,7,7.1,7.1L1.8,7.8
			c-0.1,0-0.2,0.1-0.3,0.2c0,0.1,0,0.3,0.1,0.3l3.9,3.8c0.1,0.1,0.1,0.2,0.1,0.3l-0.9,5.3c0,0.1,0,0.3,0.1,0.3
			c0.1,0.1,0.2,0.1,0.4,0l4.8-2.5c0.1,0,0.2,0,0.3,0l4.8,2.5c0.1,0.1,0.3,0,0.4,0c0.1-0.1,0.2-0.2,0.1-0.3l-0.9-5.3
			c0-0.1,0-0.2,0.1-0.3l3.9-3.8c0.1-0.1,0.1-0.2,0.1-0.3c0-0.1-0.1-0.2-0.3-0.2l-5.3-0.8c-0.1,0-0.2-0.1-0.2-0.2l-2.4-4.8
			C10.2,2,10.1,1.9,10,1.9z"/>
	</g>
</g>
</svg>
