<?xml version="1.0" encoding="utf-8"?>
<!-- Generator: Adobe Illustrator 19.0.0, SVG Export Plug-In . SVG Version: 6.00 Build 0)  -->
<svg version="1.1" id="Camada_1" xmlns="http://www.w3.org/2000/svg" xmlns:xlink="http://www.w3.org/1999/xlink" x="0px" y="0px"
	 viewBox="0 0 30 24" style="enable-background:new 0 0 30 24;" xml:space="preserve">
<style type="text/css">
	.st0{fill:#CA061D;}
</style>
<path id="XMLID_4_" class="st0" d="M18.8,4c1.2,0,2.4,0.5,3.2,1.4c1-0.2,1.9-0.6,2.7-1c-0.3,1-1,1.9-1.9,2.4c0.9-0.1,2,0,2.5-0.7
	c-0.6,0.9-1.3,1.6-2.2,2.2c0,0.2,0,0.4,0,0.6c0,5.7-4.3,12.3-12.3,12.3c-2.4,0-4.7-0.7-6.6-1.9c0.3,0,0.7,0.1,1,0.1
	c2,0,3.9-0.7,5.4-1.8c-1.9,0-3.5-1.3-4-3c0.3,0.1,0.5,0.1,0.8,0.1c0.4,0,0.7-0.1,1-0.2c-2-0.4-3.6-2.1-3.6-4.2V10
	c0,0.3,1.4,0.5,2.1,0.5C5.8,9.8,5,8.5,5,7c0-0.8,0.2-1.5,0.6-2.2c2.1,2.6,5.3,4.3,8.9,4.5c-0.1-0.3-0.1-0.6-0.1-1
	C14.5,5.9,16.4,4,18.8,4"/>
</svg>
